<svg width="32" height="8" viewBox="0 0 32 8" fill="none" xmlns="http://www.w3.org/2000/svg">
<path fill-rule="evenodd" clip-rule="evenodd" d="M6.57136 3.99979C6.57136 5.73554 5.16425 7.14265 3.4285 7.14265C1.69275 7.14265 0.285645 5.73554 0.285645 3.99979C0.285645 2.26404 1.69275 0.856934 3.4285 0.856934C5.16425 0.856934 6.57136 2.26404 6.57136 3.99979ZM19.1428 3.99979C19.1428 5.73554 17.7357 7.14265 15.9999 7.14265C14.2642 7.14265 12.8571 5.73554 12.8571 3.99979C12.8571 2.26404 14.2642 0.856934 15.9999 0.856934C17.7357 0.856934 19.1428 2.26404 19.1428 3.99979ZM28.5714 7.14265C30.3071 7.14265 31.7142 5.73554 31.7142 3.99979C31.7142 2.26404 30.3071 0.856934 28.5714 0.856934C26.8356 0.856934 25.4285 2.26404 25.4285 3.99979C25.4285 5.73554 26.8356 7.14265 28.5714 7.14265Z" fill="white"/>
</svg>
