<svg width="14" height="14" viewBox="0 0 14 14" fill="none" xmlns="http://www.w3.org/2000/svg">
<path d="M10.1438 4.88032L5.66462 0.290764C5.48178 0.104531 5.23445 0 4.97664 0C4.71883 0 4.4715 0.104531 4.28866 0.290764C4.19719 0.383718 4.12459 0.494309 4.07505 0.616156C4.02551 0.738004 4 0.868697 4 1.0007C4 1.13269 4.02551 1.26339 4.07505 1.38524C4.12459 1.50708 4.19719 1.61767 4.28866 1.71063L8.77761 6.29018C8.86908 6.38314 8.94168 6.49373 8.99122 6.61557C9.04076 6.73742 9.06627 6.86812 9.06627 7.00011C9.06627 7.13211 9.04076 7.26281 8.99122 7.38465C8.94168 7.5065 8.86908 7.61709 8.77761 7.71005L4.28866 12.2896C4.1049 12.4766 4.00115 12.7307 4.00024 12.996C3.99932 13.2613 4.10132 13.5162 4.28378 13.7045C4.46624 13.8928 4.71423 13.9991 4.97319 14C5.23215 14.0009 5.48086 13.8964 5.66462 13.7095L10.1438 9.11991C10.6921 8.55746 11 7.79504 11 7.00011C11 6.20519 10.6921 5.44277 10.1438 4.88032Z" fill="#7B7B7B"/>
</svg>
