<svg width="20" height="20" viewBox="0 0 20 20" fill="none" xmlns="http://www.w3.org/2000/svg">
<path d="M8.13704 4.41265C8.72236 4.25604 9.34393 4.16667 10.0003 4.16667C15.3034 4.16667 18.3337 10 18.3337 10C18.3337 10 17.6428 11.3298 16.3437 12.7196M3.62459 7.31519C2.34633 8.69228 1.66699 10 1.66699 10C1.66699 10 4.6973 15.8333 10.0003 15.8333C10.6687 15.8333 11.301 15.7407 11.8957 15.5787M9.58366 12.4654C8.68018 12.3139 7.94102 11.6777 7.64258 10.8333M10.417 7.53457C11.4639 7.7102 12.2901 8.53646 12.4658 9.58333M2.50033 2.5L17.5003 17.5" stroke="#757575" stroke-width="1.5" stroke-linecap="round" stroke-linejoin="round"/>
</svg>
