<svg width="16" height="16" viewBox="0 0 16 16" fill="none" xmlns="http://www.w3.org/2000/svg">
<path d="M1.53373 2C2.38815 1.19461 3.51915 0.747963 4.69332 0.752243C5.86749 0.756523 6.9952 1.2114 7.84373 2.023C8.35421 1.53721 8.96985 1.17569 9.64278 0.966524C10.3157 0.757361 11.0278 0.706194 11.7237 0.817H11.7257C12.6525 0.968697 13.5109 1.39933 14.1867 2.05146C14.8624 2.70359 15.3232 3.54623 15.5077 4.467V4.47C15.6409 5.14484 15.6191 5.84112 15.444 6.50631C15.2689 7.1715 14.945 7.78824 14.4967 8.31L9.19373 14.629C8.94415 14.9253 8.604 15.1313 8.22575 15.2152C7.84749 15.299 7.45216 15.2561 7.10073 15.093C6.86771 14.9846 6.66122 14.8266 6.49573 14.63L1.19173 8.309C0.427999 7.41458 0.0374455 6.26074 0.100922 5.08633C0.164399 3.91192 0.677043 2.80689 1.53273 2H1.53373ZM4.69173 2.252C4.10128 2.249 3.5224 2.41567 3.02395 2.73219C2.5255 3.0487 2.12846 3.50174 1.88006 4.0374C1.63166 4.57307 1.54237 5.16881 1.62279 5.75376C1.70322 6.33871 1.94998 6.88825 2.33373 7.337L2.33873 7.342L7.64373 13.664C7.68098 13.7078 7.73151 13.7382 7.78765 13.7507C7.84378 13.7631 7.90245 13.7569 7.95473 13.733C7.98941 13.7168 8.02013 13.6933 8.04473 13.664L13.3567 7.334C13.6576 6.98465 13.8751 6.57151 13.9929 6.12578C14.1107 5.68005 14.1257 5.21337 14.0367 4.761C13.9121 4.13992 13.6012 3.57156 13.1454 3.13156C12.6897 2.69156 12.1108 2.4008 11.4857 2.298C11.0169 2.22346 10.5372 2.25832 10.0841 2.39988C9.63098 2.54143 9.21674 2.78584 8.87373 3.114L8.86673 3.121C8.58897 3.37946 8.22364 3.52314 7.84423 3.52314C7.46482 3.52314 7.09949 3.37946 6.82173 3.121L6.81273 3.113C6.24248 2.56435 5.48305 2.25607 4.69173 2.252Z" fill="white" fill-opacity="0.698"/>
</svg>
